<svg width="1024" height="753" viewBox="0 0 1024 753" fill="none" xmlns="http://www.w3.org/2000/svg">
<g opacity="0.2" filter="url(#filter0_f_175_220)">
<ellipse cx="310.5" cy="200" rx="670.5" ry="350" fill="#338AF3"/>
</g>
<g opacity="0.6">
<path d="M717.93 136C719.356 136 720.436 136.605 721.17 137.815C721.916 139.011 722.29 140.753 722.29 143.04C722.29 145.327 721.916 147.075 721.17 148.285C720.436 149.495 719.356 150.1 717.93 150.1C716.517 150.1 715.437 149.495 714.69 148.285C713.943 147.075 713.57 145.327 713.57 143.04C713.57 140.767 713.943 139.025 714.69 137.815C715.437 136.605 716.517 136 717.93 136ZM714.99 143.04C714.99 144.662 715.137 145.932 715.43 146.849L719.87 138.014C719.403 137.389 718.756 137.077 717.93 137.077C717.01 137.077 716.29 137.569 715.77 138.553C715.25 139.523 714.99 141.019 714.99 143.04ZM717.93 149.003C718.863 149.003 719.59 148.518 720.11 147.547C720.63 146.564 720.89 145.061 720.89 143.04C720.89 141.325 720.723 139.995 720.39 139.051L715.95 147.966C716.43 148.658 717.09 149.003 717.93 149.003Z" fill="url(#paint0_linear_175_220)"/>
<path d="M719.13 171.637H722.07V172.694H714.45V171.637H717.85V160.428L714.61 162.363L714.05 161.465L718.05 158.992H719.13V171.637Z" fill="url(#paint1_linear_175_220)"/>
<path d="M717.93 181.586C719.356 181.586 720.436 182.191 721.17 183.4C721.916 184.597 722.29 186.339 722.29 188.626C722.29 190.913 721.916 192.661 721.17 193.871C720.436 195.081 719.356 195.686 717.93 195.686C716.517 195.686 715.437 195.081 714.69 193.871C713.943 192.661 713.57 190.913 713.57 188.626C713.57 186.352 713.943 184.61 714.69 183.4C715.437 182.191 716.517 181.586 717.93 181.586ZM714.99 188.626C714.99 190.248 715.137 191.518 715.43 192.435L719.87 183.6C719.403 182.975 718.756 182.663 717.93 182.663C717.01 182.663 716.29 183.155 715.77 184.138C715.25 185.109 714.99 186.605 714.99 188.626ZM717.93 194.589C718.863 194.589 719.59 194.104 720.11 193.133C720.63 192.149 720.89 190.647 720.89 188.626C720.89 186.911 720.723 185.581 720.39 184.637L715.95 193.552C716.43 194.243 717.09 194.589 717.93 194.589Z" fill="url(#paint2_linear_175_220)"/>
<path d="M719.13 217.222H722.07V218.279H714.45V217.222H717.85V206.014L714.61 207.948L714.05 207.051L718.05 204.578H719.13V217.222Z" fill="url(#paint3_linear_175_220)"/>
<path d="M719.13 240.015H722.07V241.072H714.45V240.015H717.85V228.807L714.61 230.741L714.05 229.844L718.05 227.371H719.13V240.015Z" fill="url(#paint4_linear_175_220)"/>
<path d="M717.93 249.964C719.356 249.964 720.436 250.569 721.17 251.779C721.916 252.976 722.29 254.717 722.29 257.004C722.29 259.291 721.916 261.039 721.17 262.249C720.436 263.459 719.356 264.064 717.93 264.064C716.517 264.064 715.437 263.459 714.69 262.249C713.943 261.039 713.57 259.291 713.57 257.004C713.57 254.731 713.943 252.989 714.69 251.779C715.437 250.569 716.517 249.964 717.93 249.964ZM714.99 257.004C714.99 258.626 715.137 259.896 715.43 260.813L719.87 251.978C719.403 251.353 718.756 251.041 717.93 251.041C717.01 251.041 716.29 251.533 715.77 252.517C715.25 253.487 714.99 254.983 714.99 257.004ZM717.93 262.967C718.863 262.967 719.59 262.482 720.11 261.511C720.63 260.528 720.89 259.025 720.89 257.004C720.89 255.289 720.723 253.959 720.39 253.015L715.95 261.93C716.43 262.622 717.09 262.967 717.93 262.967Z" fill="url(#paint5_linear_175_220)"/>
<path d="M719.13 285.601H722.07V286.658H714.45V285.601H717.85V274.392L714.61 276.327L714.05 275.429L718.05 272.956H719.13V285.601Z" fill="url(#paint6_linear_175_220)"/>
<path d="M717.93 295.55C719.356 295.55 720.436 296.155 721.17 297.365C721.916 298.561 722.29 300.303 722.29 302.59C722.29 304.877 721.916 306.625 721.17 307.835C720.436 309.045 719.356 309.65 717.93 309.65C716.517 309.65 715.437 309.045 714.69 307.835C713.943 306.625 713.57 304.877 713.57 302.59C713.57 300.316 713.943 298.574 714.69 297.365C715.437 296.155 716.517 295.55 717.93 295.55ZM714.99 302.59C714.99 304.212 715.137 305.482 715.43 306.399L719.87 297.564C719.403 296.939 718.756 296.627 717.93 296.627C717.01 296.627 716.29 297.119 715.77 298.102C715.25 299.073 714.99 300.569 714.99 302.59ZM717.93 308.553C718.863 308.553 719.59 308.068 720.11 307.097C720.63 306.113 720.89 304.611 720.89 302.59C720.89 300.875 720.723 299.545 720.39 298.601L715.95 307.516C716.43 308.207 717.09 308.553 717.93 308.553Z" fill="url(#paint7_linear_175_220)"/>
<path d="M717.93 318.342C719.356 318.342 720.436 318.947 721.17 320.157C721.916 321.354 722.29 323.096 722.29 325.383C722.29 327.669 721.916 329.418 721.17 330.628C720.436 331.838 719.356 332.443 717.93 332.443C716.517 332.443 715.437 331.838 714.69 330.628C713.943 329.418 713.57 327.669 713.57 325.383C713.57 323.109 713.943 321.367 714.69 320.157C715.437 318.947 716.517 318.342 717.93 318.342ZM714.99 325.383C714.99 327.005 715.137 328.274 715.43 329.192L719.87 320.357C719.403 319.732 718.756 319.419 717.93 319.419C717.01 319.419 716.29 319.911 715.77 320.895C715.25 321.866 714.99 323.362 714.99 325.383ZM717.93 331.346C718.863 331.346 719.59 330.86 720.11 329.89C720.63 328.906 720.89 327.404 720.89 325.383C720.89 323.667 720.723 322.338 720.39 321.394L715.95 330.309C716.43 331 717.09 331.346 717.93 331.346Z" fill="url(#paint8_linear_175_220)"/>
<path d="M719.13 353.979H722.07V355.036H714.45V353.979H717.85V342.771L714.61 344.705L714.05 343.808L718.05 341.335H719.13V353.979Z" fill="url(#paint9_linear_175_220)"/>
<path d="M717.93 363.928C719.356 363.928 720.436 364.533 721.17 365.743C721.916 366.94 722.29 368.681 722.29 370.968C722.29 373.255 721.916 375.003 721.17 376.213C720.436 377.423 719.356 378.028 717.93 378.028C716.517 378.028 715.437 377.423 714.69 376.213C713.943 375.003 713.57 373.255 713.57 370.968C713.57 368.695 713.943 366.953 714.69 365.743C715.437 364.533 716.517 363.928 717.93 363.928ZM714.99 370.968C714.99 372.59 715.137 373.86 715.43 374.777L719.87 365.942C719.403 365.317 718.756 365.005 717.93 365.005C717.01 365.005 716.29 365.497 715.77 366.481C715.25 367.451 714.99 368.947 714.99 370.968ZM717.93 376.931C718.863 376.931 719.59 376.446 720.11 375.475C720.63 374.492 720.89 372.989 720.89 370.968C720.89 369.253 720.723 367.923 720.39 366.979L715.95 375.894C716.43 376.586 717.09 376.931 717.93 376.931Z" fill="url(#paint10_linear_175_220)"/>
<path d="M719.13 399.565H722.07V400.622H714.45V399.565H717.85V388.356L714.61 390.291L714.05 389.393L718.05 386.92H719.13V399.565Z" fill="url(#paint11_linear_175_220)"/>
<path d="M719.13 422.357H722.07V423.414H714.45V422.357H717.85V411.149L714.61 413.084L714.05 412.186L718.05 409.713H719.13V422.357Z" fill="url(#paint12_linear_175_220)"/>
<path d="M755.07 181.586C756.497 181.586 757.577 182.191 758.31 183.4C759.057 184.597 759.43 186.339 759.43 188.626C759.43 190.913 759.057 192.661 758.31 193.871C757.577 195.081 756.497 195.686 755.07 195.686C753.657 195.686 752.577 195.081 751.83 193.871C751.084 192.661 750.71 190.913 750.71 188.626C750.71 186.352 751.084 184.61 751.83 183.4C752.577 182.191 753.657 181.586 755.07 181.586ZM752.13 188.626C752.13 190.248 752.277 191.518 752.57 192.435L757.01 183.6C756.543 182.975 755.897 182.663 755.07 182.663C754.15 182.663 753.43 183.155 752.91 184.138C752.39 185.109 752.13 186.605 752.13 188.626ZM755.07 194.589C756.003 194.589 756.73 194.104 757.25 193.133C757.77 192.149 758.03 190.647 758.03 188.626C758.03 186.911 757.863 185.581 757.53 184.637L753.09 193.552C753.57 194.243 754.23 194.589 755.07 194.589Z" fill="url(#paint13_linear_175_220)"/>
<path d="M756.27 217.222H759.21V218.279H751.59V217.222H754.99V206.014L751.75 207.948L751.19 207.051L755.19 204.578H756.27V217.222Z" fill="url(#paint14_linear_175_220)"/>
<path d="M755.07 227.171C756.497 227.171 757.577 227.776 758.31 228.986C759.057 230.183 759.43 231.924 759.43 234.211C759.43 236.498 759.057 238.247 758.31 239.457C757.577 240.666 756.497 241.271 755.07 241.271C753.657 241.271 752.577 240.666 751.83 239.457C751.084 238.247 750.71 236.498 750.71 234.211C750.71 231.938 751.084 230.196 751.83 228.986C752.577 227.776 753.657 227.171 755.07 227.171ZM752.13 234.211C752.13 235.833 752.277 237.103 752.57 238.021L757.01 229.186C756.543 228.561 755.897 228.248 755.07 228.248C754.15 228.248 753.43 228.74 752.91 229.724C752.39 230.695 752.13 232.19 752.13 234.211ZM755.07 240.174C756.003 240.174 756.73 239.689 757.25 238.719C757.77 237.735 758.03 236.232 758.03 234.211C758.03 232.496 757.863 231.167 757.53 230.223L753.09 239.137C753.57 239.829 754.23 240.174 755.07 240.174Z" fill="url(#paint15_linear_175_220)"/>
<path d="M755.07 249.964C756.497 249.964 757.577 250.569 758.31 251.779C759.057 252.976 759.43 254.717 759.43 257.004C759.43 259.291 759.057 261.039 758.31 262.249C757.577 263.459 756.497 264.064 755.07 264.064C753.657 264.064 752.577 263.459 751.83 262.249C751.084 261.039 750.71 259.291 750.71 257.004C750.71 254.731 751.084 252.989 751.83 251.779C752.577 250.569 753.657 249.964 755.07 249.964ZM752.13 257.004C752.13 258.626 752.277 259.896 752.57 260.813L757.01 251.978C756.543 251.353 755.897 251.041 755.07 251.041C754.15 251.041 753.43 251.533 752.91 252.517C752.39 253.487 752.13 254.983 752.13 257.004ZM755.07 262.967C756.003 262.967 756.73 262.482 757.25 261.511C757.77 260.528 758.03 259.025 758.03 257.004C758.03 255.289 757.863 253.959 757.53 253.015L753.09 261.93C753.57 262.622 754.23 262.967 755.07 262.967Z" fill="url(#paint16_linear_175_220)"/>
<path d="M756.27 285.601H759.21V286.658H751.59V285.601H754.99V274.392L751.75 276.327L751.19 275.429L755.19 272.956H756.27V285.601Z" fill="url(#paint17_linear_175_220)"/>
<path d="M755.07 295.55C756.497 295.55 757.577 296.155 758.31 297.365C759.057 298.561 759.43 300.303 759.43 302.59C759.43 304.877 759.057 306.625 758.31 307.835C757.577 309.045 756.497 309.65 755.07 309.65C753.657 309.65 752.577 309.045 751.83 307.835C751.084 306.625 750.71 304.877 750.71 302.59C750.71 300.316 751.084 298.574 751.83 297.365C752.577 296.155 753.657 295.55 755.07 295.55ZM752.13 302.59C752.13 304.212 752.277 305.482 752.57 306.399L757.01 297.564C756.543 296.939 755.897 296.627 755.07 296.627C754.15 296.627 753.43 297.119 752.91 298.102C752.39 299.073 752.13 300.569 752.13 302.59ZM755.07 308.553C756.003 308.553 756.73 308.068 757.25 307.097C757.77 306.113 758.03 304.611 758.03 302.59C758.03 300.875 757.863 299.545 757.53 298.601L753.09 307.516C753.57 308.207 754.23 308.553 755.07 308.553Z" fill="url(#paint18_linear_175_220)"/>
<path d="M756.27 331.186H759.21V332.243H751.59V331.186H754.99V319.978L751.75 321.912L751.19 321.015L755.19 318.542H756.27V331.186Z" fill="url(#paint19_linear_175_220)"/>
<path d="M755.07 341.135C756.497 341.135 757.577 341.74 758.31 342.95C759.057 344.147 759.43 345.888 759.43 348.175C759.43 350.462 759.057 352.211 758.31 353.421C757.577 354.63 756.497 355.235 755.07 355.235C753.657 355.235 752.577 354.63 751.83 353.421C751.084 352.211 750.71 350.462 750.71 348.175C750.71 345.902 751.084 344.16 751.83 342.95C752.577 341.74 753.657 341.135 755.07 341.135ZM752.13 348.175C752.13 349.797 752.277 351.067 752.57 351.985L757.01 343.15C756.543 342.525 755.897 342.212 755.07 342.212C754.15 342.212 753.43 342.704 752.91 343.688C752.39 344.659 752.13 346.154 752.13 348.175ZM755.07 354.139C756.003 354.139 756.73 353.653 757.25 352.683C757.77 351.699 758.03 350.196 758.03 348.175C758.03 346.46 757.863 345.131 757.53 344.187L753.09 353.101C753.57 353.793 754.23 354.139 755.07 354.139Z" fill="url(#paint20_linear_175_220)"/>
<path d="M755.07 363.928C756.497 363.928 757.577 364.533 758.31 365.743C759.057 366.94 759.43 368.681 759.43 370.968C759.43 373.255 759.057 375.003 758.31 376.213C757.577 377.423 756.497 378.028 755.07 378.028C753.657 378.028 752.577 377.423 751.83 376.213C751.084 375.003 750.71 373.255 750.71 370.968C750.71 368.695 751.084 366.953 751.83 365.743C752.577 364.533 753.657 363.928 755.07 363.928ZM752.13 370.968C752.13 372.59 752.277 373.86 752.57 374.777L757.01 365.942C756.543 365.317 755.897 365.005 755.07 365.005C754.15 365.005 753.43 365.497 752.91 366.481C752.39 367.451 752.13 368.947 752.13 370.968ZM755.07 376.931C756.003 376.931 756.73 376.446 757.25 375.475C757.77 374.492 758.03 372.989 758.03 370.968C758.03 369.253 757.863 367.923 757.53 366.979L753.09 375.894C753.57 376.586 754.23 376.931 755.07 376.931Z" fill="url(#paint21_linear_175_220)"/>
<path d="M756.27 399.565H759.21V400.622H751.59V399.565H754.99V388.356L751.75 390.291L751.19 389.393L755.19 386.92H756.27V399.565Z" fill="url(#paint22_linear_175_220)"/>
<path d="M755.07 409.514C756.497 409.514 757.577 410.119 758.31 411.329C759.057 412.525 759.43 414.267 759.43 416.554C759.43 418.841 759.057 420.589 758.31 421.799C757.577 423.009 756.497 423.614 755.07 423.614C753.657 423.614 752.577 423.009 751.83 421.799C751.084 420.589 750.71 418.841 750.71 416.554C750.71 414.28 751.084 412.538 751.83 411.329C752.577 410.119 753.657 409.514 755.07 409.514ZM752.13 416.554C752.13 418.176 752.277 419.446 752.57 420.363L757.01 411.528C756.543 410.903 755.897 410.591 755.07 410.591C754.15 410.591 753.43 411.083 752.91 412.066C752.39 413.037 752.13 414.533 752.13 416.554ZM755.07 422.517C756.003 422.517 756.73 422.032 757.25 421.061C757.77 420.077 758.03 418.575 758.03 416.554C758.03 414.839 757.863 413.509 757.53 412.565L753.09 421.48C753.57 422.171 754.23 422.517 755.07 422.517Z" fill="url(#paint23_linear_175_220)"/>
<path d="M756.27 445.15H759.21V446.207H751.59V445.15H754.99V433.942L751.75 435.876L751.19 434.979L755.19 432.506H756.27V445.15Z" fill="url(#paint24_linear_175_220)"/>
<path d="M756.27 467.943H759.21V469H751.59V467.943H754.99V456.735L751.75 458.669L751.19 457.772L755.19 455.299H756.27V467.943Z" fill="url(#paint25_linear_175_220)"/>
<path d="M699.36 204.378C700.786 204.378 701.866 204.983 702.599 206.193C703.346 207.39 703.719 209.132 703.719 211.419C703.719 213.705 703.346 215.454 702.599 216.664C701.866 217.874 700.786 218.479 699.36 218.479C697.946 218.479 696.867 217.874 696.12 216.664C695.373 215.454 695 213.705 695 211.419C695 209.145 695.373 207.403 696.12 206.193C696.867 204.983 697.946 204.378 699.36 204.378ZM696.42 211.419C696.42 213.041 696.567 214.31 696.86 215.228L701.3 206.393C700.833 205.768 700.186 205.455 699.36 205.455C698.44 205.455 697.72 205.947 697.2 206.931C696.68 207.902 696.42 209.398 696.42 211.419ZM699.36 217.382C700.293 217.382 701.02 216.896 701.54 215.926C702.06 214.942 702.319 213.44 702.319 211.419C702.319 209.703 702.153 208.374 701.82 207.43L697.38 216.345C697.86 217.036 698.52 217.382 699.36 217.382Z" fill="url(#paint26_linear_175_220)"/>
<path d="M699.36 227.171C700.786 227.171 701.866 227.776 702.599 228.986C703.346 230.183 703.719 231.924 703.719 234.211C703.719 236.498 703.346 238.247 702.599 239.457C701.866 240.666 700.786 241.271 699.36 241.271C697.946 241.271 696.867 240.666 696.12 239.457C695.373 238.247 695 236.498 695 234.211C695 231.938 695.373 230.196 696.12 228.986C696.867 227.776 697.946 227.171 699.36 227.171ZM696.42 234.211C696.42 235.833 696.567 237.103 696.86 238.021L701.3 229.186C700.833 228.561 700.186 228.248 699.36 228.248C698.44 228.248 697.72 228.74 697.2 229.724C696.68 230.695 696.42 232.19 696.42 234.211ZM699.36 240.174C700.293 240.174 701.02 239.689 701.54 238.719C702.06 237.735 702.319 236.232 702.319 234.211C702.319 232.496 702.153 231.167 701.82 230.223L697.38 239.137C697.86 239.829 698.52 240.174 699.36 240.174Z" fill="url(#paint27_linear_175_220)"/>
<path d="M700.56 262.808H703.499V263.865H695.88V262.808H699.28V251.599L696.04 253.534L695.48 252.636L699.48 250.163H700.56V262.808Z" fill="url(#paint28_linear_175_220)"/>
<path d="M699.36 272.757C700.786 272.757 701.866 273.362 702.599 274.572C703.346 275.768 703.719 277.51 703.719 279.797C703.719 282.084 703.346 283.832 702.599 285.042C701.866 286.252 700.786 286.857 699.36 286.857C697.946 286.857 696.867 286.252 696.12 285.042C695.373 283.832 695 282.084 695 279.797C695 277.523 695.373 275.782 696.12 274.572C696.867 273.362 697.946 272.757 699.36 272.757ZM696.42 279.797C696.42 281.419 696.567 282.689 696.86 283.606L701.3 274.771C700.833 274.146 700.186 273.834 699.36 273.834C698.44 273.834 697.72 274.326 697.2 275.31C696.68 276.28 696.42 277.776 696.42 279.797ZM699.36 285.76C700.293 285.76 701.02 285.275 701.54 284.304C702.06 283.32 702.319 281.818 702.319 279.797C702.319 278.082 702.153 276.752 701.82 275.808L697.38 284.723C697.86 285.414 698.52 285.76 699.36 285.76Z" fill="url(#paint29_linear_175_220)"/>
<path d="M700.56 308.393H703.499V309.45H695.88V308.393H699.28V297.185L696.04 299.12L695.48 298.222L699.48 295.749H700.56V308.393Z" fill="url(#paint30_linear_175_220)"/>
<path d="M700.56 331.186H703.499V332.243H695.88V331.186H699.28V319.978L696.04 321.912L695.48 321.015L699.48 318.542H700.56V331.186Z" fill="url(#paint31_linear_175_220)"/>
<path d="M737.7 171.637H740.64V172.694H733.02V171.637H736.42V160.428L733.18 162.363L732.62 161.465L736.62 158.992H737.7V171.637Z" fill="url(#paint32_linear_175_220)"/>
<path d="M736.5 181.586C737.927 181.586 739.006 182.191 739.74 183.4C740.486 184.597 740.86 186.339 740.86 188.626C740.86 190.913 740.486 192.661 739.74 193.871C739.006 195.081 737.927 195.686 736.5 195.686C735.087 195.686 734.007 195.081 733.26 193.871C732.514 192.661 732.14 190.913 732.14 188.626C732.14 186.352 732.514 184.61 733.26 183.4C734.007 182.191 735.087 181.586 736.5 181.586ZM733.56 188.626C733.56 190.248 733.707 191.518 734 192.435L738.44 183.6C737.973 182.975 737.327 182.663 736.5 182.663C735.58 182.663 734.86 183.155 734.34 184.138C733.82 185.109 733.56 186.605 733.56 188.626ZM736.5 194.589C737.433 194.589 738.16 194.104 738.68 193.133C739.2 192.149 739.46 190.647 739.46 188.626C739.46 186.911 739.293 185.581 738.96 184.637L734.52 193.552C735 194.243 735.66 194.589 736.5 194.589Z" fill="url(#paint33_linear_175_220)"/>
<path d="M737.7 217.222H740.64V218.279H733.02V217.222H736.42V206.014L733.18 207.948L732.62 207.051L736.62 204.578H737.7V217.222Z" fill="url(#paint34_linear_175_220)"/>
<path d="M737.7 240.015H740.64V241.072H733.02V240.015H736.42V228.807L733.18 230.741L732.62 229.844L736.62 227.371H737.7V240.015Z" fill="url(#paint35_linear_175_220)"/>
<path d="M736.5 249.964C737.927 249.964 739.006 250.569 739.74 251.779C740.486 252.976 740.86 254.717 740.86 257.004C740.86 259.291 740.486 261.039 739.74 262.249C739.006 263.459 737.927 264.064 736.5 264.064C735.087 264.064 734.007 263.459 733.26 262.249C732.514 261.039 732.14 259.291 732.14 257.004C732.14 254.731 732.514 252.989 733.26 251.779C734.007 250.569 735.087 249.964 736.5 249.964ZM733.56 257.004C733.56 258.626 733.707 259.896 734 260.813L738.44 251.978C737.973 251.353 737.327 251.041 736.5 251.041C735.58 251.041 734.86 251.533 734.34 252.517C733.82 253.487 733.56 254.983 733.56 257.004ZM736.5 262.967C737.433 262.967 738.16 262.482 738.68 261.511C739.2 260.528 739.46 259.025 739.46 257.004C739.46 255.289 739.293 253.959 738.96 253.015L734.52 261.93C735 262.622 735.66 262.967 736.5 262.967Z" fill="url(#paint36_linear_175_220)"/>
<path d="M737.7 285.601H740.64V286.658H733.02V285.601H736.42V274.392L733.18 276.327L732.62 275.429L736.62 272.956H737.7V285.601Z" fill="url(#paint37_linear_175_220)"/>
<path d="M737.7 308.393H740.64V309.45H733.02V308.393H736.42V297.185L733.18 299.12L732.62 298.222L736.62 295.749H737.7V308.393Z" fill="url(#paint38_linear_175_220)"/>
<path d="M736.5 318.342C737.927 318.342 739.006 318.947 739.74 320.157C740.486 321.354 740.86 323.096 740.86 325.383C740.86 327.669 740.486 329.418 739.74 330.628C739.006 331.838 737.927 332.443 736.5 332.443C735.087 332.443 734.007 331.838 733.26 330.628C732.514 329.418 732.14 327.669 732.14 325.383C732.14 323.109 732.514 321.367 733.26 320.157C734.007 318.947 735.087 318.342 736.5 318.342ZM733.56 325.383C733.56 327.005 733.707 328.274 734 329.192L738.44 320.357C737.973 319.732 737.327 319.419 736.5 319.419C735.58 319.419 734.86 319.911 734.34 320.895C733.82 321.866 733.56 323.362 733.56 325.383ZM736.5 331.346C737.433 331.346 738.16 330.86 738.68 329.89C739.2 328.906 739.46 327.404 739.46 325.383C739.46 323.667 739.293 322.338 738.96 321.394L734.52 330.309C735 331 735.66 331.346 736.5 331.346Z" fill="url(#paint39_linear_175_220)"/>
<path d="M737.7 353.979H740.64V355.036H733.02V353.979H736.42V342.771L733.18 344.705L732.62 343.808L736.62 341.335H737.7V353.979Z" fill="url(#paint40_linear_175_220)"/>
<path d="M736.5 363.928C737.927 363.928 739.006 364.533 739.74 365.743C740.486 366.94 740.86 368.681 740.86 370.968C740.86 373.255 740.486 375.003 739.74 376.213C739.006 377.423 737.927 378.028 736.5 378.028C735.087 378.028 734.007 377.423 733.26 376.213C732.514 375.003 732.14 373.255 732.14 370.968C732.14 368.695 732.514 366.953 733.26 365.743C734.007 364.533 735.087 363.928 736.5 363.928ZM733.56 370.968C733.56 372.59 733.707 373.86 734 374.777L738.44 365.942C737.973 365.317 737.327 365.005 736.5 365.005C735.58 365.005 734.86 365.497 734.34 366.481C733.82 367.451 733.56 368.947 733.56 370.968ZM736.5 376.931C737.433 376.931 738.16 376.446 738.68 375.475C739.2 374.492 739.46 372.989 739.46 370.968C739.46 369.253 739.293 367.923 738.96 366.979L734.52 375.894C735 376.586 735.66 376.931 736.5 376.931Z" fill="url(#paint41_linear_175_220)"/>
<path d="M773.64 158.793C775.067 158.793 776.147 159.398 776.88 160.608C777.627 161.804 778 163.546 778 165.833C778 168.12 777.627 169.868 776.88 171.078C776.147 172.288 775.067 172.893 773.64 172.893C772.227 172.893 771.147 172.288 770.401 171.078C769.654 169.868 769.281 168.12 769.281 165.833C769.281 163.559 769.654 161.818 770.401 160.608C771.147 159.398 772.227 158.793 773.64 158.793ZM770.7 165.833C770.7 167.455 770.847 168.725 771.14 169.642L775.58 160.807C775.114 160.182 774.467 159.87 773.64 159.87C772.72 159.87 772 160.362 771.48 161.346C770.96 162.316 770.7 163.812 770.7 165.833ZM773.64 171.796C774.574 171.796 775.3 171.311 775.82 170.34C776.34 169.356 776.6 167.854 776.6 165.833C776.6 164.118 776.433 162.788 776.1 161.844L771.66 170.759C772.14 171.45 772.8 171.796 773.64 171.796Z" fill="url(#paint42_linear_175_220)"/>
<path d="M774.84 194.429H777.78V195.486H770.161V194.429H773.56V183.221L770.321 185.156L769.761 184.258L773.76 181.785H774.84V194.429Z" fill="url(#paint43_linear_175_220)"/>
<path d="M774.84 217.222H777.78V218.279H770.161V217.222H773.56V206.014L770.321 207.948L769.761 207.051L773.76 204.578H774.84V217.222Z" fill="url(#paint44_linear_175_220)"/>
<path d="M773.64 227.171C775.067 227.171 776.147 227.776 776.88 228.986C777.627 230.183 778 231.924 778 234.211C778 236.498 777.627 238.247 776.88 239.457C776.147 240.666 775.067 241.271 773.64 241.271C772.227 241.271 771.147 240.666 770.401 239.457C769.654 238.247 769.281 236.498 769.281 234.211C769.281 231.938 769.654 230.196 770.401 228.986C771.147 227.776 772.227 227.171 773.64 227.171ZM770.7 234.211C770.7 235.833 770.847 237.103 771.14 238.021L775.58 229.186C775.114 228.561 774.467 228.248 773.64 228.248C772.72 228.248 772 228.74 771.48 229.724C770.96 230.695 770.7 232.19 770.7 234.211ZM773.64 240.174C774.574 240.174 775.3 239.689 775.82 238.719C776.34 237.735 776.6 236.232 776.6 234.211C776.6 232.496 776.433 231.167 776.1 230.223L771.66 239.137C772.14 239.829 772.8 240.174 773.64 240.174Z" fill="url(#paint45_linear_175_220)"/>
<path d="M773.64 249.964C775.067 249.964 776.147 250.569 776.88 251.779C777.627 252.976 778 254.717 778 257.004C778 259.291 777.627 261.039 776.88 262.249C776.147 263.459 775.067 264.064 773.64 264.064C772.227 264.064 771.147 263.459 770.401 262.249C769.654 261.039 769.281 259.291 769.281 257.004C769.281 254.731 769.654 252.989 770.401 251.779C771.147 250.569 772.227 249.964 773.64 249.964ZM770.7 257.004C770.7 258.626 770.847 259.896 771.14 260.813L775.58 251.978C775.114 251.353 774.467 251.041 773.64 251.041C772.72 251.041 772 251.533 771.48 252.517C770.96 253.487 770.7 254.983 770.7 257.004ZM773.64 262.967C774.574 262.967 775.3 262.482 775.82 261.511C776.34 260.528 776.6 259.025 776.6 257.004C776.6 255.289 776.433 253.959 776.1 253.015L771.66 261.93C772.14 262.622 772.8 262.967 773.64 262.967Z" fill="url(#paint46_linear_175_220)"/>
</g>
<defs>
<filter id="filter0_f_175_220" x="-760.19" y="-550.19" width="2141.38" height="1500.38" filterUnits="userSpaceOnUse" color-interpolation-filters="sRGB">
<feFlood flood-opacity="0" result="BackgroundImageFix"/>
<feBlend mode="normal" in="SourceGraphic" in2="BackgroundImageFix" result="shape"/>
<feGaussianBlur stdDeviation="200.095" result="effect1_foregroundBlur_175_220"/>
</filter>
<linearGradient id="paint0_linear_175_220" x1="736.5" y1="136" x2="736.5" y2="434.818" gradientUnits="userSpaceOnUse">
<stop stop-color="#F7DD43"/>
<stop offset="1" stop-color="#F7DD43" stop-opacity="0"/>
</linearGradient>
<linearGradient id="paint1_linear_175_220" x1="736.5" y1="136" x2="736.5" y2="434.818" gradientUnits="userSpaceOnUse">
<stop stop-color="#F7DD43"/>
<stop offset="1" stop-color="#F7DD43" stop-opacity="0"/>
</linearGradient>
<linearGradient id="paint2_linear_175_220" x1="736.5" y1="136" x2="736.5" y2="434.818" gradientUnits="userSpaceOnUse">
<stop stop-color="#F7DD43"/>
<stop offset="1" stop-color="#F7DD43" stop-opacity="0"/>
</linearGradient>
<linearGradient id="paint3_linear_175_220" x1="736.5" y1="136" x2="736.5" y2="434.818" gradientUnits="userSpaceOnUse">
<stop stop-color="#F7DD43"/>
<stop offset="1" stop-color="#F7DD43" stop-opacity="0"/>
</linearGradient>
<linearGradient id="paint4_linear_175_220" x1="736.5" y1="136" x2="736.5" y2="434.818" gradientUnits="userSpaceOnUse">
<stop stop-color="#F7DD43"/>
<stop offset="1" stop-color="#F7DD43" stop-opacity="0"/>
</linearGradient>
<linearGradient id="paint5_linear_175_220" x1="736.5" y1="136" x2="736.5" y2="434.818" gradientUnits="userSpaceOnUse">
<stop stop-color="#F7DD43"/>
<stop offset="1" stop-color="#F7DD43" stop-opacity="0"/>
</linearGradient>
<linearGradient id="paint6_linear_175_220" x1="736.5" y1="136" x2="736.5" y2="434.818" gradientUnits="userSpaceOnUse">
<stop stop-color="#F7DD43"/>
<stop offset="1" stop-color="#F7DD43" stop-opacity="0"/>
</linearGradient>
<linearGradient id="paint7_linear_175_220" x1="736.5" y1="136" x2="736.5" y2="434.818" gradientUnits="userSpaceOnUse">
<stop stop-color="#F7DD43"/>
<stop offset="1" stop-color="#F7DD43" stop-opacity="0"/>
</linearGradient>
<linearGradient id="paint8_linear_175_220" x1="736.5" y1="136" x2="736.5" y2="434.818" gradientUnits="userSpaceOnUse">
<stop stop-color="#F7DD43"/>
<stop offset="1" stop-color="#F7DD43" stop-opacity="0"/>
</linearGradient>
<linearGradient id="paint9_linear_175_220" x1="736.5" y1="136" x2="736.5" y2="434.818" gradientUnits="userSpaceOnUse">
<stop stop-color="#F7DD43"/>
<stop offset="1" stop-color="#F7DD43" stop-opacity="0"/>
</linearGradient>
<linearGradient id="paint10_linear_175_220" x1="736.5" y1="136" x2="736.5" y2="434.818" gradientUnits="userSpaceOnUse">
<stop stop-color="#F7DD43"/>
<stop offset="1" stop-color="#F7DD43" stop-opacity="0"/>
</linearGradient>
<linearGradient id="paint11_linear_175_220" x1="736.5" y1="136" x2="736.5" y2="434.818" gradientUnits="userSpaceOnUse">
<stop stop-color="#F7DD43"/>
<stop offset="1" stop-color="#F7DD43" stop-opacity="0"/>
</linearGradient>
<linearGradient id="paint12_linear_175_220" x1="736.5" y1="136" x2="736.5" y2="434.818" gradientUnits="userSpaceOnUse">
<stop stop-color="#F7DD43"/>
<stop offset="1" stop-color="#F7DD43" stop-opacity="0"/>
</linearGradient>
<linearGradient id="paint13_linear_175_220" x1="736.5" y1="136" x2="736.5" y2="434.818" gradientUnits="userSpaceOnUse">
<stop stop-color="#F7DD43"/>
<stop offset="1" stop-color="#F7DD43" stop-opacity="0"/>
</linearGradient>
<linearGradient id="paint14_linear_175_220" x1="736.5" y1="136" x2="736.5" y2="434.818" gradientUnits="userSpaceOnUse">
<stop stop-color="#F7DD43"/>
<stop offset="1" stop-color="#F7DD43" stop-opacity="0"/>
</linearGradient>
<linearGradient id="paint15_linear_175_220" x1="736.5" y1="136" x2="736.5" y2="434.818" gradientUnits="userSpaceOnUse">
<stop stop-color="#F7DD43"/>
<stop offset="1" stop-color="#F7DD43" stop-opacity="0"/>
</linearGradient>
<linearGradient id="paint16_linear_175_220" x1="736.5" y1="136" x2="736.5" y2="434.818" gradientUnits="userSpaceOnUse">
<stop stop-color="#F7DD43"/>
<stop offset="1" stop-color="#F7DD43" stop-opacity="0"/>
</linearGradient>
<linearGradient id="paint17_linear_175_220" x1="736.5" y1="136" x2="736.5" y2="434.818" gradientUnits="userSpaceOnUse">
<stop stop-color="#F7DD43"/>
<stop offset="1" stop-color="#F7DD43" stop-opacity="0"/>
</linearGradient>
<linearGradient id="paint18_linear_175_220" x1="736.5" y1="136" x2="736.5" y2="434.818" gradientUnits="userSpaceOnUse">
<stop stop-color="#F7DD43"/>
<stop offset="1" stop-color="#F7DD43" stop-opacity="0"/>
</linearGradient>
<linearGradient id="paint19_linear_175_220" x1="736.5" y1="136" x2="736.5" y2="434.818" gradientUnits="userSpaceOnUse">
<stop stop-color="#F7DD43"/>
<stop offset="1" stop-color="#F7DD43" stop-opacity="0"/>
</linearGradient>
<linearGradient id="paint20_linear_175_220" x1="736.5" y1="136" x2="736.5" y2="434.818" gradientUnits="userSpaceOnUse">
<stop stop-color="#F7DD43"/>
<stop offset="1" stop-color="#F7DD43" stop-opacity="0"/>
</linearGradient>
<linearGradient id="paint21_linear_175_220" x1="736.5" y1="136" x2="736.5" y2="434.818" gradientUnits="userSpaceOnUse">
<stop stop-color="#F7DD43"/>
<stop offset="1" stop-color="#F7DD43" stop-opacity="0"/>
</linearGradient>
<linearGradient id="paint22_linear_175_220" x1="736.5" y1="136" x2="736.5" y2="434.818" gradientUnits="userSpaceOnUse">
<stop stop-color="#F7DD43"/>
<stop offset="1" stop-color="#F7DD43" stop-opacity="0"/>
</linearGradient>
<linearGradient id="paint23_linear_175_220" x1="736.5" y1="136" x2="736.5" y2="434.818" gradientUnits="userSpaceOnUse">
<stop stop-color="#F7DD43"/>
<stop offset="1" stop-color="#F7DD43" stop-opacity="0"/>
</linearGradient>
<linearGradient id="paint24_linear_175_220" x1="736.5" y1="136" x2="736.5" y2="434.818" gradientUnits="userSpaceOnUse">
<stop stop-color="#F7DD43"/>
<stop offset="1" stop-color="#F7DD43" stop-opacity="0"/>
</linearGradient>
<linearGradient id="paint25_linear_175_220" x1="736.5" y1="136" x2="736.5" y2="434.818" gradientUnits="userSpaceOnUse">
<stop stop-color="#F7DD43"/>
<stop offset="1" stop-color="#F7DD43" stop-opacity="0"/>
</linearGradient>
<linearGradient id="paint26_linear_175_220" x1="736.5" y1="136" x2="736.5" y2="434.818" gradientUnits="userSpaceOnUse">
<stop stop-color="#F7DD43"/>
<stop offset="1" stop-color="#F7DD43" stop-opacity="0"/>
</linearGradient>
<linearGradient id="paint27_linear_175_220" x1="736.5" y1="136" x2="736.5" y2="434.818" gradientUnits="userSpaceOnUse">
<stop stop-color="#F7DD43"/>
<stop offset="1" stop-color="#F7DD43" stop-opacity="0"/>
</linearGradient>
<linearGradient id="paint28_linear_175_220" x1="736.5" y1="136" x2="736.5" y2="434.818" gradientUnits="userSpaceOnUse">
<stop stop-color="#F7DD43"/>
<stop offset="1" stop-color="#F7DD43" stop-opacity="0"/>
</linearGradient>
<linearGradient id="paint29_linear_175_220" x1="736.5" y1="136" x2="736.5" y2="434.818" gradientUnits="userSpaceOnUse">
<stop stop-color="#F7DD43"/>
<stop offset="1" stop-color="#F7DD43" stop-opacity="0"/>
</linearGradient>
<linearGradient id="paint30_linear_175_220" x1="736.5" y1="136" x2="736.5" y2="434.818" gradientUnits="userSpaceOnUse">
<stop stop-color="#F7DD43"/>
<stop offset="1" stop-color="#F7DD43" stop-opacity="0"/>
</linearGradient>
<linearGradient id="paint31_linear_175_220" x1="736.5" y1="136" x2="736.5" y2="434.818" gradientUnits="userSpaceOnUse">
<stop stop-color="#F7DD43"/>
<stop offset="1" stop-color="#F7DD43" stop-opacity="0"/>
</linearGradient>
<linearGradient id="paint32_linear_175_220" x1="736.5" y1="136" x2="736.5" y2="434.818" gradientUnits="userSpaceOnUse">
<stop stop-color="#F7DD43"/>
<stop offset="1" stop-color="#F7DD43" stop-opacity="0"/>
</linearGradient>
<linearGradient id="paint33_linear_175_220" x1="736.5" y1="136" x2="736.5" y2="434.818" gradientUnits="userSpaceOnUse">
<stop stop-color="#F7DD43"/>
<stop offset="1" stop-color="#F7DD43" stop-opacity="0"/>
</linearGradient>
<linearGradient id="paint34_linear_175_220" x1="736.5" y1="136" x2="736.5" y2="434.818" gradientUnits="userSpaceOnUse">
<stop stop-color="#F7DD43"/>
<stop offset="1" stop-color="#F7DD43" stop-opacity="0"/>
</linearGradient>
<linearGradient id="paint35_linear_175_220" x1="736.5" y1="136" x2="736.5" y2="434.818" gradientUnits="userSpaceOnUse">
<stop stop-color="#F7DD43"/>
<stop offset="1" stop-color="#F7DD43" stop-opacity="0"/>
</linearGradient>
<linearGradient id="paint36_linear_175_220" x1="736.5" y1="136" x2="736.5" y2="434.818" gradientUnits="userSpaceOnUse">
<stop stop-color="#F7DD43"/>
<stop offset="1" stop-color="#F7DD43" stop-opacity="0"/>
</linearGradient>
<linearGradient id="paint37_linear_175_220" x1="736.5" y1="136" x2="736.5" y2="434.818" gradientUnits="userSpaceOnUse">
<stop stop-color="#F7DD43"/>
<stop offset="1" stop-color="#F7DD43" stop-opacity="0"/>
</linearGradient>
<linearGradient id="paint38_linear_175_220" x1="736.5" y1="136" x2="736.5" y2="434.818" gradientUnits="userSpaceOnUse">
<stop stop-color="#F7DD43"/>
<stop offset="1" stop-color="#F7DD43" stop-opacity="0"/>
</linearGradient>
<linearGradient id="paint39_linear_175_220" x1="736.5" y1="136" x2="736.5" y2="434.818" gradientUnits="userSpaceOnUse">
<stop stop-color="#F7DD43"/>
<stop offset="1" stop-color="#F7DD43" stop-opacity="0"/>
</linearGradient>
<linearGradient id="paint40_linear_175_220" x1="736.5" y1="136" x2="736.5" y2="434.818" gradientUnits="userSpaceOnUse">
<stop stop-color="#F7DD43"/>
<stop offset="1" stop-color="#F7DD43" stop-opacity="0"/>
</linearGradient>
<linearGradient id="paint41_linear_175_220" x1="736.5" y1="136" x2="736.5" y2="434.818" gradientUnits="userSpaceOnUse">
<stop stop-color="#F7DD43"/>
<stop offset="1" stop-color="#F7DD43" stop-opacity="0"/>
</linearGradient>
<linearGradient id="paint42_linear_175_220" x1="736.5" y1="136" x2="736.5" y2="434.818" gradientUnits="userSpaceOnUse">
<stop stop-color="#F7DD43"/>
<stop offset="1" stop-color="#F7DD43" stop-opacity="0"/>
</linearGradient>
<linearGradient id="paint43_linear_175_220" x1="736.5" y1="136" x2="736.5" y2="434.818" gradientUnits="userSpaceOnUse">
<stop stop-color="#F7DD43"/>
<stop offset="1" stop-color="#F7DD43" stop-opacity="0"/>
</linearGradient>
<linearGradient id="paint44_linear_175_220" x1="736.5" y1="136" x2="736.5" y2="434.818" gradientUnits="userSpaceOnUse">
<stop stop-color="#F7DD43"/>
<stop offset="1" stop-color="#F7DD43" stop-opacity="0"/>
</linearGradient>
<linearGradient id="paint45_linear_175_220" x1="736.5" y1="136" x2="736.5" y2="434.818" gradientUnits="userSpaceOnUse">
<stop stop-color="#F7DD43"/>
<stop offset="1" stop-color="#F7DD43" stop-opacity="0"/>
</linearGradient>
<linearGradient id="paint46_linear_175_220" x1="736.5" y1="136" x2="736.5" y2="434.818" gradientUnits="userSpaceOnUse">
<stop stop-color="#F7DD43"/>
<stop offset="1" stop-color="#F7DD43" stop-opacity="0"/>
</linearGradient>
</defs>
</svg>
