<svg width="1024" height="753" viewBox="0 0 1024 753" fill="none" xmlns="http://www.w3.org/2000/svg">
<g opacity="0.2" filter="url(#filter0_f_175_198)">
<ellipse cx="639.5" cy="94" rx="670.5" ry="350" fill="#35875D"/>
</g>
<path d="M160.035 330C161.53 330 162.662 330.63 163.431 331.891C164.213 333.138 164.605 334.953 164.605 337.336C164.605 339.719 164.213 341.541 163.431 342.802C162.662 344.063 161.53 344.693 160.035 344.693C158.554 344.693 157.422 344.063 156.639 342.802C155.856 341.541 155.465 339.719 155.465 337.336C155.465 334.967 155.856 333.152 156.639 331.891C157.422 330.63 158.554 330 160.035 330ZM156.953 337.336C156.953 339.026 157.107 340.35 157.415 341.306L162.068 332.099C161.579 331.448 160.901 331.122 160.035 331.122C159.071 331.122 158.316 331.635 157.771 332.66C157.226 333.672 156.953 335.23 156.953 337.336ZM160.035 343.55C161.013 343.55 161.775 343.044 162.32 342.033C162.865 341.008 163.137 339.442 163.137 337.336C163.137 335.549 162.963 334.163 162.613 333.18L157.96 342.469C158.463 343.19 159.154 343.55 160.035 343.55Z" fill="url(#paint0_linear_175_198)" fill-opacity="0.6"/>
<path d="M161.293 367.135H164.374V368.236H156.387V367.135H159.951V355.455L156.555 357.471L155.968 356.536L160.161 353.959H161.293V367.135Z" fill="url(#paint1_linear_175_198)" fill-opacity="0.6"/>
<path d="M160.035 377.502C161.53 377.502 162.662 378.133 163.431 379.393C164.213 380.64 164.605 382.455 164.605 384.838C164.605 387.221 164.213 389.043 163.431 390.304C162.662 391.565 161.53 392.195 160.035 392.195C158.554 392.195 157.422 391.565 156.639 390.304C155.856 389.043 155.465 387.221 155.465 384.838C155.465 382.469 155.856 380.654 156.639 379.393C157.422 378.133 158.554 377.502 160.035 377.502ZM156.953 384.838C156.953 386.529 157.107 387.852 157.415 388.808L162.068 379.601C161.579 378.95 160.901 378.624 160.035 378.624C159.071 378.624 158.316 379.137 157.771 380.162C157.226 381.174 156.953 382.732 156.953 384.838ZM160.035 391.052C161.013 391.052 161.775 390.546 162.32 389.535C162.865 388.51 163.137 386.944 163.137 384.838C163.137 383.051 162.963 381.665 162.613 380.682L157.96 389.971C158.463 390.692 159.154 391.052 160.035 391.052Z" fill="url(#paint2_linear_175_198)" fill-opacity="0.6"/>
<path d="M161.293 414.637H164.374V415.738H156.387V414.637H159.951V402.957L156.555 404.973L155.968 404.038L160.161 401.461H161.293V414.637Z" fill="url(#paint3_linear_175_198)" fill-opacity="0.6"/>
<path d="M161.293 438.388H164.374V439.489H156.387V438.388H159.951V426.708L156.555 428.724L155.968 427.789L160.161 425.212H161.293V438.388Z" fill="url(#paint4_linear_175_198)" fill-opacity="0.6"/>
<path d="M160.035 448.755C161.53 448.755 162.662 449.386 163.431 450.646C164.213 451.893 164.605 453.708 164.605 456.091C164.605 458.474 164.213 460.296 163.431 461.557C162.662 462.818 161.53 463.448 160.035 463.448C158.554 463.448 157.422 462.818 156.639 461.557C155.856 460.296 155.465 458.474 155.465 456.091C155.465 453.722 155.856 451.907 156.639 450.646C157.422 449.386 158.554 448.755 160.035 448.755ZM156.953 456.091C156.953 457.782 157.107 459.105 157.415 460.061L162.068 450.854C161.579 450.203 160.901 449.878 160.035 449.878C159.071 449.878 158.316 450.39 157.771 451.415C157.226 452.427 156.953 453.985 156.953 456.091ZM160.035 462.305C161.013 462.305 161.775 461.8 162.32 460.788C162.865 459.763 163.137 458.197 163.137 456.091C163.137 454.304 162.963 452.919 162.613 451.935L157.96 461.225C158.463 461.945 159.154 462.305 160.035 462.305Z" fill="url(#paint5_linear_175_198)" fill-opacity="0.6"/>
<path d="M161.293 485.89H164.374V486.992H156.387V485.89H159.951V474.21L156.555 476.226L155.968 475.291L160.161 472.714H161.293V485.89Z" fill="url(#paint6_linear_175_198)" fill-opacity="0.6"/>
<path d="M160.035 496.257C161.53 496.257 162.662 496.888 163.431 498.149C164.213 499.396 164.605 501.211 164.605 503.594C164.605 505.977 164.213 507.798 163.431 509.059C162.662 510.32 161.53 510.95 160.035 510.95C158.554 510.95 157.422 510.32 156.639 509.059C155.856 507.798 155.465 505.977 155.465 503.594C155.465 501.224 155.856 499.409 156.639 498.149C157.422 496.888 158.554 496.257 160.035 496.257ZM156.953 503.594C156.953 505.284 157.107 506.607 157.415 507.563L162.068 498.356C161.579 497.705 160.901 497.38 160.035 497.38C159.071 497.38 158.316 497.892 157.771 498.918C157.226 499.929 156.953 501.488 156.953 503.594ZM160.035 509.807C161.013 509.807 161.775 509.302 162.32 508.29C162.865 507.265 163.137 505.699 163.137 503.594C163.137 501.806 162.963 500.421 162.613 499.437L157.96 508.727C158.463 509.447 159.154 509.807 160.035 509.807Z" fill="url(#paint7_linear_175_198)" fill-opacity="0.6"/>
<path d="M160.035 520.008C161.53 520.008 162.662 520.639 163.431 521.9C164.213 523.147 164.605 524.962 164.605 527.345C164.605 529.728 164.213 531.549 163.431 532.81C162.662 534.071 161.53 534.701 160.035 534.701C158.554 534.701 157.422 534.071 156.639 532.81C155.856 531.549 155.465 529.728 155.465 527.345C155.465 524.975 155.856 523.16 156.639 521.9C157.422 520.639 158.554 520.008 160.035 520.008ZM156.953 527.345C156.953 529.035 157.107 530.358 157.415 531.314L162.068 522.107C161.579 521.456 160.901 521.131 160.035 521.131C159.071 521.131 158.316 521.643 157.771 522.669C157.226 523.68 156.953 525.239 156.953 527.345ZM160.035 533.558C161.013 533.558 161.775 533.053 162.32 532.041C162.865 531.016 163.137 529.451 163.137 527.345C163.137 525.557 162.963 524.172 162.613 523.188L157.96 532.478C158.463 533.198 159.154 533.558 160.035 533.558Z" fill="url(#paint8_linear_175_198)" fill-opacity="0.6"/>
<path d="M161.293 557.143H164.374V558.245H156.387V557.143H159.951V545.464L156.555 547.48L155.968 546.544L160.161 543.967H161.293V557.143Z" fill="url(#paint9_linear_175_198)" fill-opacity="0.6"/>
<path d="M160.035 567.511C161.53 567.511 162.662 568.141 163.431 569.402C164.213 570.649 164.605 572.464 164.605 574.847C164.605 577.23 164.213 579.052 163.431 580.312C162.662 581.573 161.53 582.204 160.035 582.204C158.554 582.204 157.422 581.573 156.639 580.312C155.856 579.052 155.465 577.23 155.465 574.847C155.465 572.478 155.856 570.663 156.639 569.402C157.422 568.141 158.554 567.511 160.035 567.511ZM156.953 574.847C156.953 576.537 157.107 577.86 157.415 578.816L162.068 569.61C161.579 568.958 160.901 568.633 160.035 568.633C159.071 568.633 158.316 569.145 157.771 570.171C157.226 571.182 156.953 572.741 156.953 574.847ZM160.035 581.061C161.013 581.061 161.775 580.555 162.32 579.543C162.865 578.518 163.137 576.953 163.137 574.847C163.137 573.059 162.963 571.674 162.613 570.69L157.96 579.98C158.463 580.7 159.154 581.061 160.035 581.061Z" fill="url(#paint10_linear_175_198)" fill-opacity="0.6"/>
<path d="M161.293 604.645H164.374V605.747H156.387V604.645H159.951V592.966L156.555 594.982L155.968 594.046L160.161 591.469H161.293V604.645Z" fill="url(#paint11_linear_175_198)" fill-opacity="0.6"/>
<path d="M161.293 628.396H164.374V629.498H156.387V628.396H159.951V616.717L156.555 618.733L155.968 617.798L160.161 615.221H161.293V628.396Z" fill="url(#paint12_linear_175_198)" fill-opacity="0.6"/>
<path d="M198.965 377.502C200.46 377.502 201.592 378.133 202.361 379.393C203.144 380.64 203.535 382.455 203.535 384.838C203.535 387.221 203.144 389.043 202.361 390.304C201.592 391.565 200.46 392.195 198.965 392.195C197.484 392.195 196.352 391.565 195.569 390.304C194.787 389.043 194.395 387.221 194.395 384.838C194.395 382.469 194.787 380.654 195.569 379.393C196.352 378.133 197.484 377.502 198.965 377.502ZM195.884 384.838C195.884 386.529 196.037 387.852 196.345 388.808L200.998 379.601C200.509 378.95 199.832 378.624 198.965 378.624C198.001 378.624 197.246 379.137 196.701 380.162C196.156 381.174 195.884 382.732 195.884 384.838ZM198.965 391.052C199.943 391.052 200.705 390.546 201.25 389.535C201.795 388.51 202.068 386.944 202.068 384.838C202.068 383.051 201.893 381.665 201.543 380.682L196.89 389.971C197.393 390.692 198.085 391.052 198.965 391.052Z" fill="url(#paint13_linear_175_198)" fill-opacity="0.6"/>
<path d="M200.223 414.637H203.304V415.738H195.318V414.637H198.881V402.957L195.485 404.973L194.898 404.038L199.091 401.461H200.223V414.637Z" fill="url(#paint14_linear_175_198)" fill-opacity="0.6"/>
<path d="M198.965 425.004C200.46 425.004 201.592 425.635 202.361 426.895C203.144 428.142 203.535 429.957 203.535 432.34C203.535 434.723 203.144 436.545 202.361 437.806C201.592 439.067 200.46 439.697 198.965 439.697C197.484 439.697 196.352 439.067 195.569 437.806C194.787 436.545 194.395 434.723 194.395 432.34C194.395 429.971 194.787 428.156 195.569 426.895C196.352 425.635 197.484 425.004 198.965 425.004ZM195.884 432.34C195.884 434.031 196.037 435.354 196.345 436.31L200.998 427.103C200.509 426.452 199.832 426.126 198.965 426.126C198.001 426.126 197.246 426.639 196.701 427.664C196.156 428.676 195.884 430.234 195.884 432.34ZM198.965 438.554C199.943 438.554 200.705 438.049 201.25 437.037C201.795 436.012 202.068 434.446 202.068 432.34C202.068 430.553 201.893 429.168 201.543 428.184L196.89 437.474C197.393 438.194 198.085 438.554 198.965 438.554Z" fill="url(#paint15_linear_175_198)" fill-opacity="0.6"/>
<path d="M198.965 448.755C200.46 448.755 201.592 449.386 202.361 450.646C203.144 451.893 203.535 453.708 203.535 456.091C203.535 458.474 203.144 460.296 202.361 461.557C201.592 462.818 200.46 463.448 198.965 463.448C197.484 463.448 196.352 462.818 195.569 461.557C194.787 460.296 194.395 458.474 194.395 456.091C194.395 453.722 194.787 451.907 195.569 450.646C196.352 449.386 197.484 448.755 198.965 448.755ZM195.884 456.091C195.884 457.782 196.037 459.105 196.345 460.061L200.998 450.854C200.509 450.203 199.832 449.878 198.965 449.878C198.001 449.878 197.246 450.39 196.701 451.415C196.156 452.427 195.884 453.985 195.884 456.091ZM198.965 462.305C199.943 462.305 200.705 461.8 201.25 460.788C201.795 459.763 202.068 458.197 202.068 456.091C202.068 454.304 201.893 452.919 201.543 451.935L196.89 461.225C197.393 461.945 198.085 462.305 198.965 462.305Z" fill="url(#paint16_linear_175_198)" fill-opacity="0.6"/>
<path d="M200.223 485.89H203.304V486.992H195.318V485.89H198.881V474.21L195.485 476.226L194.898 475.291L199.091 472.714H200.223V485.89Z" fill="url(#paint17_linear_175_198)" fill-opacity="0.6"/>
<path d="M198.965 496.257C200.46 496.257 201.592 496.888 202.361 498.149C203.144 499.396 203.535 501.211 203.535 503.594C203.535 505.977 203.144 507.798 202.361 509.059C201.592 510.32 200.46 510.95 198.965 510.95C197.484 510.95 196.352 510.32 195.569 509.059C194.787 507.798 194.395 505.977 194.395 503.594C194.395 501.224 194.787 499.409 195.569 498.149C196.352 496.888 197.484 496.257 198.965 496.257ZM195.884 503.594C195.884 505.284 196.037 506.607 196.345 507.563L200.998 498.356C200.509 497.705 199.832 497.38 198.965 497.38C198.001 497.38 197.246 497.892 196.701 498.918C196.156 499.929 195.884 501.488 195.884 503.594ZM198.965 509.807C199.943 509.807 200.705 509.302 201.25 508.29C201.795 507.265 202.068 505.699 202.068 503.594C202.068 501.806 201.893 500.421 201.543 499.437L196.89 508.727C197.393 509.447 198.085 509.807 198.965 509.807Z" fill="url(#paint18_linear_175_198)" fill-opacity="0.6"/>
<path d="M200.223 533.392H203.304V534.494H195.318V533.392H198.881V521.713L195.485 523.728L194.898 522.793L199.091 520.216H200.223V533.392Z" fill="url(#paint19_linear_175_198)" fill-opacity="0.6"/>
<path d="M198.965 543.76C200.46 543.76 201.592 544.39 202.361 545.651C203.144 546.898 203.535 548.713 203.535 551.096C203.535 553.479 203.144 555.301 202.361 556.561C201.592 557.822 200.46 558.453 198.965 558.453C197.484 558.453 196.352 557.822 195.569 556.561C194.787 555.301 194.395 553.479 194.395 551.096C194.395 548.726 194.787 546.911 195.569 545.651C196.352 544.39 197.484 543.76 198.965 543.76ZM195.884 551.096C195.884 552.786 196.037 554.109 196.345 555.065L200.998 545.859C200.509 545.207 199.832 544.882 198.965 544.882C198.001 544.882 197.246 545.394 196.701 546.42C196.156 547.431 195.884 548.99 195.884 551.096ZM198.965 557.31C199.943 557.31 200.705 556.804 201.25 555.792C201.795 554.767 202.068 553.202 202.068 551.096C202.068 549.308 201.893 547.923 201.543 546.939L196.89 556.229C197.393 556.949 198.085 557.31 198.965 557.31Z" fill="url(#paint20_linear_175_198)" fill-opacity="0.6"/>
<path d="M198.965 567.511C200.46 567.511 201.592 568.141 202.361 569.402C203.144 570.649 203.535 572.464 203.535 574.847C203.535 577.23 203.144 579.052 202.361 580.312C201.592 581.573 200.46 582.204 198.965 582.204C197.484 582.204 196.352 581.573 195.569 580.312C194.787 579.052 194.395 577.23 194.395 574.847C194.395 572.478 194.787 570.663 195.569 569.402C196.352 568.141 197.484 567.511 198.965 567.511ZM195.884 574.847C195.884 576.537 196.037 577.86 196.345 578.816L200.998 569.61C200.509 568.958 199.832 568.633 198.965 568.633C198.001 568.633 197.246 569.145 196.701 570.171C196.156 571.182 195.884 572.741 195.884 574.847ZM198.965 581.061C199.943 581.061 200.705 580.555 201.25 579.543C201.795 578.518 202.068 576.953 202.068 574.847C202.068 573.059 201.893 571.674 201.543 570.69L196.89 579.98C197.393 580.7 198.085 581.061 198.965 581.061Z" fill="url(#paint21_linear_175_198)" fill-opacity="0.6"/>
<path d="M200.223 604.645H203.304V605.747H195.318V604.645H198.881V592.966L195.485 594.982L194.898 594.046L199.091 591.469H200.223V604.645Z" fill="url(#paint22_linear_175_198)" fill-opacity="0.6"/>
<path d="M198.965 615.013C200.46 615.013 201.592 615.643 202.361 616.904C203.144 618.151 203.535 619.966 203.535 622.349C203.535 624.732 203.144 626.554 202.361 627.815C201.592 629.075 200.46 629.706 198.965 629.706C197.484 629.706 196.352 629.075 195.569 627.815C194.787 626.554 194.395 624.732 194.395 622.349C194.395 619.98 194.787 618.165 195.569 616.904C196.352 615.643 197.484 615.013 198.965 615.013ZM195.884 622.349C195.884 624.039 196.037 625.362 196.345 626.318L200.998 617.112C200.509 616.461 199.832 616.135 198.965 616.135C198.001 616.135 197.246 616.648 196.701 617.673C196.156 618.684 195.884 620.243 195.884 622.349ZM198.965 628.563C199.943 628.563 200.705 628.057 201.25 627.046C201.795 626.02 202.068 624.455 202.068 622.349C202.068 620.562 201.893 619.176 201.543 618.192L196.89 627.482C197.393 628.202 198.085 628.563 198.965 628.563Z" fill="url(#paint23_linear_175_198)" fill-opacity="0.6"/>
<path d="M200.223 652.148H203.304V653.249H195.318V652.148H198.881V640.468L195.485 642.484L194.898 641.549L199.091 638.972H200.223V652.148Z" fill="url(#paint24_linear_175_198)" fill-opacity="0.6"/>
<path d="M200.223 675.899H203.304V677H195.318V675.899H198.881V664.219L195.485 666.235L194.898 665.3L199.091 662.723H200.223V675.899Z" fill="url(#paint25_linear_175_198)" fill-opacity="0.6"/>
<path d="M140.57 401.253C142.065 401.253 143.197 401.884 143.966 403.144C144.748 404.391 145.14 406.206 145.14 408.589C145.14 410.972 144.748 412.794 143.966 414.055C143.197 415.316 142.065 415.946 140.57 415.946C139.088 415.946 137.956 415.316 137.174 414.055C136.391 412.794 136 410.972 136 408.589C136 406.22 136.391 404.405 137.174 403.144C137.956 401.884 139.088 401.253 140.57 401.253ZM137.488 408.589C137.488 410.28 137.642 411.603 137.95 412.559L142.603 403.352C142.114 402.701 141.436 402.375 140.57 402.375C139.606 402.375 138.851 402.888 138.306 403.913C137.761 404.925 137.488 406.483 137.488 408.589ZM140.57 414.803C141.548 414.803 142.31 414.297 142.855 413.286C143.4 412.261 143.672 410.695 143.672 408.589C143.672 406.802 143.498 405.417 143.148 404.433L138.495 413.722C138.998 414.443 139.689 414.803 140.57 414.803Z" fill="url(#paint26_linear_175_198)" fill-opacity="0.6"/>
<path d="M140.57 425.004C142.065 425.004 143.197 425.635 143.966 426.895C144.748 428.142 145.14 429.957 145.14 432.34C145.14 434.723 144.748 436.545 143.966 437.806C143.197 439.067 142.065 439.697 140.57 439.697C139.088 439.697 137.956 439.067 137.174 437.806C136.391 436.545 136 434.723 136 432.34C136 429.971 136.391 428.156 137.174 426.895C137.956 425.635 139.088 425.004 140.57 425.004ZM137.488 432.34C137.488 434.031 137.642 435.354 137.95 436.31L142.603 427.103C142.114 426.452 141.436 426.126 140.57 426.126C139.606 426.126 138.851 426.639 138.306 427.664C137.761 428.676 137.488 430.234 137.488 432.34ZM140.57 438.554C141.548 438.554 142.31 438.049 142.855 437.037C143.4 436.012 143.672 434.446 143.672 432.34C143.672 430.553 143.498 429.168 143.148 428.184L138.495 437.474C138.998 438.194 139.689 438.554 140.57 438.554Z" fill="url(#paint27_linear_175_198)" fill-opacity="0.6"/>
<path d="M141.828 462.139H144.909V463.24H136.922V462.139H140.486V450.459L137.09 452.475L136.503 451.54L140.696 448.963H141.828V462.139Z" fill="url(#paint28_linear_175_198)" fill-opacity="0.6"/>
<path d="M140.57 472.506C142.065 472.506 143.197 473.137 143.966 474.398C144.748 475.644 145.14 477.459 145.14 479.842C145.14 482.225 144.748 484.047 143.966 485.308C143.197 486.569 142.065 487.199 140.57 487.199C139.088 487.199 137.956 486.569 137.174 485.308C136.391 484.047 136 482.225 136 479.842C136 477.473 136.391 475.658 137.174 474.398C137.956 473.137 139.088 472.506 140.57 472.506ZM137.488 479.842C137.488 481.533 137.642 482.856 137.95 483.812L142.603 474.605C142.114 473.954 141.436 473.629 140.57 473.629C139.606 473.629 138.851 474.141 138.306 475.166C137.761 476.178 137.488 477.737 137.488 479.842ZM140.57 486.056C141.548 486.056 142.31 485.551 142.855 484.539C143.4 483.514 143.672 481.948 143.672 479.842C143.672 478.055 143.498 476.67 143.148 475.686L138.495 484.976C138.998 485.696 139.689 486.056 140.57 486.056Z" fill="url(#paint29_linear_175_198)" fill-opacity="0.6"/>
<path d="M141.828 509.641H144.909V510.743H136.922V509.641H140.486V497.962L137.09 499.977L136.503 499.042L140.696 496.465H141.828V509.641Z" fill="url(#paint30_linear_175_198)" fill-opacity="0.6"/>
<path d="M141.828 533.392H144.909V534.494H136.922V533.392H140.486V521.713L137.09 523.728L136.503 522.793L140.696 520.216H141.828V533.392Z" fill="url(#paint31_linear_175_198)" fill-opacity="0.6"/>
<path d="M180.758 367.135H183.839V368.236H175.853V367.135H179.416V355.455L176.02 357.471L175.433 356.536L179.626 353.959H180.758V367.135Z" fill="url(#paint32_linear_175_198)" fill-opacity="0.6"/>
<path d="M179.5 377.502C180.995 377.502 182.127 378.133 182.896 379.393C183.679 380.64 184.07 382.455 184.07 384.838C184.07 387.221 183.679 389.043 182.896 390.304C182.127 391.565 180.995 392.195 179.5 392.195C178.019 392.195 176.887 391.565 176.104 390.304C175.321 389.043 174.93 387.221 174.93 384.838C174.93 382.469 175.321 380.654 176.104 379.393C176.887 378.133 178.019 377.502 179.5 377.502ZM176.419 384.838C176.419 386.529 176.572 387.852 176.88 388.808L181.533 379.601C181.044 378.95 180.366 378.624 179.5 378.624C178.536 378.624 177.781 379.137 177.236 380.162C176.691 381.174 176.419 382.732 176.419 384.838ZM179.5 391.052C180.478 391.052 181.24 390.546 181.785 389.535C182.33 388.51 182.602 386.944 182.602 384.838C182.602 383.051 182.428 381.665 182.078 380.682L177.425 389.971C177.928 390.692 178.62 391.052 179.5 391.052Z" fill="url(#paint33_linear_175_198)" fill-opacity="0.6"/>
<path d="M180.758 414.637H183.839V415.738H175.853V414.637H179.416V402.957L176.02 404.973L175.433 404.038L179.626 401.461H180.758V414.637Z" fill="url(#paint34_linear_175_198)" fill-opacity="0.6"/>
<path d="M180.758 438.388H183.839V439.489H175.853V438.388H179.416V426.708L176.02 428.724L175.433 427.789L179.626 425.212H180.758V438.388Z" fill="url(#paint35_linear_175_198)" fill-opacity="0.6"/>
<path d="M179.5 448.755C180.995 448.755 182.127 449.386 182.896 450.646C183.679 451.893 184.07 453.708 184.07 456.091C184.07 458.474 183.679 460.296 182.896 461.557C182.127 462.818 180.995 463.448 179.5 463.448C178.019 463.448 176.887 462.818 176.104 461.557C175.321 460.296 174.93 458.474 174.93 456.091C174.93 453.722 175.321 451.907 176.104 450.646C176.887 449.386 178.019 448.755 179.5 448.755ZM176.419 456.091C176.419 457.782 176.572 459.105 176.88 460.061L181.533 450.854C181.044 450.203 180.366 449.878 179.5 449.878C178.536 449.878 177.781 450.39 177.236 451.415C176.691 452.427 176.419 453.985 176.419 456.091ZM179.5 462.305C180.478 462.305 181.24 461.8 181.785 460.788C182.33 459.763 182.602 458.197 182.602 456.091C182.602 454.304 182.428 452.919 182.078 451.935L177.425 461.225C177.928 461.945 178.62 462.305 179.5 462.305Z" fill="url(#paint36_linear_175_198)" fill-opacity="0.6"/>
<path d="M180.758 485.89H183.839V486.992H175.853V485.89H179.416V474.21L176.02 476.226L175.433 475.291L179.626 472.714H180.758V485.89Z" fill="url(#paint37_linear_175_198)" fill-opacity="0.6"/>
<path d="M180.758 509.641H183.839V510.743H175.853V509.641H179.416V497.962L176.02 499.977L175.433 499.042L179.626 496.465H180.758V509.641Z" fill="url(#paint38_linear_175_198)" fill-opacity="0.6"/>
<path d="M179.5 520.008C180.995 520.008 182.127 520.639 182.896 521.9C183.679 523.147 184.07 524.962 184.07 527.345C184.07 529.728 183.679 531.549 182.896 532.81C182.127 534.071 180.995 534.701 179.5 534.701C178.019 534.701 176.887 534.071 176.104 532.81C175.321 531.549 174.93 529.728 174.93 527.345C174.93 524.975 175.321 523.16 176.104 521.9C176.887 520.639 178.019 520.008 179.5 520.008ZM176.419 527.345C176.419 529.035 176.572 530.358 176.88 531.314L181.533 522.107C181.044 521.456 180.366 521.131 179.5 521.131C178.536 521.131 177.781 521.643 177.236 522.669C176.691 523.68 176.419 525.239 176.419 527.345ZM179.5 533.558C180.478 533.558 181.24 533.053 181.785 532.041C182.33 531.016 182.602 529.451 182.602 527.345C182.602 525.557 182.428 524.172 182.078 523.188L177.425 532.478C177.928 533.198 178.62 533.558 179.5 533.558Z" fill="url(#paint39_linear_175_198)" fill-opacity="0.6"/>
<path d="M180.758 557.143H183.839V558.245H175.853V557.143H179.416V545.464L176.02 547.48L175.433 546.544L179.626 543.967H180.758V557.143Z" fill="url(#paint40_linear_175_198)" fill-opacity="0.6"/>
<path d="M179.5 567.511C180.995 567.511 182.127 568.141 182.896 569.402C183.679 570.649 184.07 572.464 184.07 574.847C184.07 577.23 183.679 579.052 182.896 580.312C182.127 581.573 180.995 582.204 179.5 582.204C178.019 582.204 176.887 581.573 176.104 580.312C175.321 579.052 174.93 577.23 174.93 574.847C174.93 572.478 175.321 570.663 176.104 569.402C176.887 568.141 178.019 567.511 179.5 567.511ZM176.419 574.847C176.419 576.537 176.572 577.86 176.88 578.816L181.533 569.61C181.044 568.958 180.366 568.633 179.5 568.633C178.536 568.633 177.781 569.145 177.236 570.171C176.691 571.182 176.419 572.741 176.419 574.847ZM179.5 581.061C180.478 581.061 181.24 580.555 181.785 579.543C182.33 578.518 182.602 576.953 182.602 574.847C182.602 573.059 182.428 571.674 182.078 570.69L177.425 579.98C177.928 580.7 178.62 581.061 179.5 581.061Z" fill="url(#paint41_linear_175_198)" fill-opacity="0.6"/>
<path d="M218.43 353.751C219.926 353.751 221.057 354.381 221.826 355.642C222.609 356.889 223 358.704 223 361.087C223 363.47 222.609 365.292 221.826 366.553C221.057 367.814 219.926 368.444 218.43 368.444C216.949 368.444 215.817 367.814 215.034 366.553C214.252 365.292 213.86 363.47 213.86 361.087C213.86 358.718 214.252 356.903 215.034 355.642C215.817 354.381 216.949 353.751 218.43 353.751ZM215.349 361.087C215.349 362.777 215.502 364.101 215.81 365.057L220.464 355.85C219.974 355.199 219.297 354.873 218.43 354.873C217.466 354.873 216.711 355.386 216.166 356.411C215.621 357.423 215.349 358.981 215.349 361.087ZM218.43 367.301C219.408 367.301 220.17 366.795 220.715 365.784C221.26 364.759 221.533 363.193 221.533 361.087C221.533 359.3 221.358 357.914 221.009 356.931L216.355 366.22C216.858 366.941 217.55 367.301 218.43 367.301Z" fill="url(#paint42_linear_175_198)" fill-opacity="0.6"/>
<path d="M219.688 390.886H222.769V391.987H214.783V390.886H218.346V379.206L214.95 381.222L214.363 380.287L218.556 377.71H219.688V390.886Z" fill="url(#paint43_linear_175_198)" fill-opacity="0.6"/>
<path d="M219.688 414.637H222.769V415.738H214.783V414.637H218.346V402.957L214.95 404.973L214.363 404.038L218.556 401.461H219.688V414.637Z" fill="url(#paint44_linear_175_198)" fill-opacity="0.6"/>
<path d="M218.43 425.004C219.926 425.004 221.057 425.635 221.826 426.895C222.609 428.142 223 429.957 223 432.34C223 434.723 222.609 436.545 221.826 437.806C221.057 439.067 219.926 439.697 218.43 439.697C216.949 439.697 215.817 439.067 215.034 437.806C214.252 436.545 213.86 434.723 213.86 432.34C213.86 429.971 214.252 428.156 215.034 426.895C215.817 425.635 216.949 425.004 218.43 425.004ZM215.349 432.34C215.349 434.031 215.502 435.354 215.81 436.31L220.464 427.103C219.974 426.452 219.297 426.126 218.43 426.126C217.466 426.126 216.711 426.639 216.166 427.664C215.621 428.676 215.349 430.234 215.349 432.34ZM218.43 438.554C219.408 438.554 220.17 438.049 220.715 437.037C221.26 436.012 221.533 434.446 221.533 432.34C221.533 430.553 221.358 429.168 221.009 428.184L216.355 437.474C216.858 438.194 217.55 438.554 218.43 438.554Z" fill="url(#paint45_linear_175_198)" fill-opacity="0.6"/>
<path d="M218.43 448.755C219.926 448.755 221.057 449.386 221.826 450.646C222.609 451.893 223 453.708 223 456.091C223 458.474 222.609 460.296 221.826 461.557C221.057 462.818 219.926 463.448 218.43 463.448C216.949 463.448 215.817 462.818 215.034 461.557C214.252 460.296 213.86 458.474 213.86 456.091C213.86 453.722 214.252 451.907 215.034 450.646C215.817 449.386 216.949 448.755 218.43 448.755ZM215.349 456.091C215.349 457.782 215.502 459.105 215.81 460.061L220.464 450.854C219.974 450.203 219.297 449.878 218.43 449.878C217.466 449.878 216.711 450.39 216.166 451.415C215.621 452.427 215.349 453.985 215.349 456.091ZM218.43 462.305C219.408 462.305 220.17 461.8 220.715 460.788C221.26 459.763 221.533 458.197 221.533 456.091C221.533 454.304 221.358 452.919 221.009 451.935L216.355 461.225C216.858 461.945 217.55 462.305 218.43 462.305Z" fill="url(#paint46_linear_175_198)" fill-opacity="0.6"/>
<defs>
<filter id="filter0_f_175_198" x="-431.19" y="-656.19" width="2141.38" height="1500.38" filterUnits="userSpaceOnUse" color-interpolation-filters="sRGB">
<feFlood flood-opacity="0" result="BackgroundImageFix"/>
<feBlend mode="normal" in="SourceGraphic" in2="BackgroundImageFix" result="shape"/>
<feGaussianBlur stdDeviation="200.095" result="effect1_foregroundBlur_175_198"/>
</filter>
<linearGradient id="paint0_linear_175_198" x1="179.5" y1="330" x2="179.5" y2="641.381" gradientUnits="userSpaceOnUse">
<stop stop-color="#F7DD43"/>
<stop offset="1" stop-color="#F7DD43" stop-opacity="0"/>
</linearGradient>
<linearGradient id="paint1_linear_175_198" x1="179.5" y1="330" x2="179.5" y2="641.381" gradientUnits="userSpaceOnUse">
<stop stop-color="#F7DD43"/>
<stop offset="1" stop-color="#F7DD43" stop-opacity="0"/>
</linearGradient>
<linearGradient id="paint2_linear_175_198" x1="179.5" y1="330" x2="179.5" y2="641.381" gradientUnits="userSpaceOnUse">
<stop stop-color="#F7DD43"/>
<stop offset="1" stop-color="#F7DD43" stop-opacity="0"/>
</linearGradient>
<linearGradient id="paint3_linear_175_198" x1="179.5" y1="330" x2="179.5" y2="641.381" gradientUnits="userSpaceOnUse">
<stop stop-color="#F7DD43"/>
<stop offset="1" stop-color="#F7DD43" stop-opacity="0"/>
</linearGradient>
<linearGradient id="paint4_linear_175_198" x1="179.5" y1="330" x2="179.5" y2="641.381" gradientUnits="userSpaceOnUse">
<stop stop-color="#F7DD43"/>
<stop offset="1" stop-color="#F7DD43" stop-opacity="0"/>
</linearGradient>
<linearGradient id="paint5_linear_175_198" x1="179.5" y1="330" x2="179.5" y2="641.381" gradientUnits="userSpaceOnUse">
<stop stop-color="#F7DD43"/>
<stop offset="1" stop-color="#F7DD43" stop-opacity="0"/>
</linearGradient>
<linearGradient id="paint6_linear_175_198" x1="179.5" y1="330" x2="179.5" y2="641.381" gradientUnits="userSpaceOnUse">
<stop stop-color="#F7DD43"/>
<stop offset="1" stop-color="#F7DD43" stop-opacity="0"/>
</linearGradient>
<linearGradient id="paint7_linear_175_198" x1="179.5" y1="330" x2="179.5" y2="641.381" gradientUnits="userSpaceOnUse">
<stop stop-color="#F7DD43"/>
<stop offset="1" stop-color="#F7DD43" stop-opacity="0"/>
</linearGradient>
<linearGradient id="paint8_linear_175_198" x1="179.5" y1="330" x2="179.5" y2="641.381" gradientUnits="userSpaceOnUse">
<stop stop-color="#F7DD43"/>
<stop offset="1" stop-color="#F7DD43" stop-opacity="0"/>
</linearGradient>
<linearGradient id="paint9_linear_175_198" x1="179.5" y1="330" x2="179.5" y2="641.381" gradientUnits="userSpaceOnUse">
<stop stop-color="#F7DD43"/>
<stop offset="1" stop-color="#F7DD43" stop-opacity="0"/>
</linearGradient>
<linearGradient id="paint10_linear_175_198" x1="179.5" y1="330" x2="179.5" y2="641.381" gradientUnits="userSpaceOnUse">
<stop stop-color="#F7DD43"/>
<stop offset="1" stop-color="#F7DD43" stop-opacity="0"/>
</linearGradient>
<linearGradient id="paint11_linear_175_198" x1="179.5" y1="330" x2="179.5" y2="641.381" gradientUnits="userSpaceOnUse">
<stop stop-color="#F7DD43"/>
<stop offset="1" stop-color="#F7DD43" stop-opacity="0"/>
</linearGradient>
<linearGradient id="paint12_linear_175_198" x1="179.5" y1="330" x2="179.5" y2="641.381" gradientUnits="userSpaceOnUse">
<stop stop-color="#F7DD43"/>
<stop offset="1" stop-color="#F7DD43" stop-opacity="0"/>
</linearGradient>
<linearGradient id="paint13_linear_175_198" x1="179.5" y1="330" x2="179.5" y2="641.381" gradientUnits="userSpaceOnUse">
<stop stop-color="#F7DD43"/>
<stop offset="1" stop-color="#F7DD43" stop-opacity="0"/>
</linearGradient>
<linearGradient id="paint14_linear_175_198" x1="179.5" y1="330" x2="179.5" y2="641.381" gradientUnits="userSpaceOnUse">
<stop stop-color="#F7DD43"/>
<stop offset="1" stop-color="#F7DD43" stop-opacity="0"/>
</linearGradient>
<linearGradient id="paint15_linear_175_198" x1="179.5" y1="330" x2="179.5" y2="641.381" gradientUnits="userSpaceOnUse">
<stop stop-color="#F7DD43"/>
<stop offset="1" stop-color="#F7DD43" stop-opacity="0"/>
</linearGradient>
<linearGradient id="paint16_linear_175_198" x1="179.5" y1="330" x2="179.5" y2="641.381" gradientUnits="userSpaceOnUse">
<stop stop-color="#F7DD43"/>
<stop offset="1" stop-color="#F7DD43" stop-opacity="0"/>
</linearGradient>
<linearGradient id="paint17_linear_175_198" x1="179.5" y1="330" x2="179.5" y2="641.381" gradientUnits="userSpaceOnUse">
<stop stop-color="#F7DD43"/>
<stop offset="1" stop-color="#F7DD43" stop-opacity="0"/>
</linearGradient>
<linearGradient id="paint18_linear_175_198" x1="179.5" y1="330" x2="179.5" y2="641.381" gradientUnits="userSpaceOnUse">
<stop stop-color="#F7DD43"/>
<stop offset="1" stop-color="#F7DD43" stop-opacity="0"/>
</linearGradient>
<linearGradient id="paint19_linear_175_198" x1="179.5" y1="330" x2="179.5" y2="641.381" gradientUnits="userSpaceOnUse">
<stop stop-color="#F7DD43"/>
<stop offset="1" stop-color="#F7DD43" stop-opacity="0"/>
</linearGradient>
<linearGradient id="paint20_linear_175_198" x1="179.5" y1="330" x2="179.5" y2="641.381" gradientUnits="userSpaceOnUse">
<stop stop-color="#F7DD43"/>
<stop offset="1" stop-color="#F7DD43" stop-opacity="0"/>
</linearGradient>
<linearGradient id="paint21_linear_175_198" x1="179.5" y1="330" x2="179.5" y2="641.381" gradientUnits="userSpaceOnUse">
<stop stop-color="#F7DD43"/>
<stop offset="1" stop-color="#F7DD43" stop-opacity="0"/>
</linearGradient>
<linearGradient id="paint22_linear_175_198" x1="179.5" y1="330" x2="179.5" y2="641.381" gradientUnits="userSpaceOnUse">
<stop stop-color="#F7DD43"/>
<stop offset="1" stop-color="#F7DD43" stop-opacity="0"/>
</linearGradient>
<linearGradient id="paint23_linear_175_198" x1="179.5" y1="330" x2="179.5" y2="641.381" gradientUnits="userSpaceOnUse">
<stop stop-color="#F7DD43"/>
<stop offset="1" stop-color="#F7DD43" stop-opacity="0"/>
</linearGradient>
<linearGradient id="paint24_linear_175_198" x1="179.5" y1="330" x2="179.5" y2="641.381" gradientUnits="userSpaceOnUse">
<stop stop-color="#F7DD43"/>
<stop offset="1" stop-color="#F7DD43" stop-opacity="0"/>
</linearGradient>
<linearGradient id="paint25_linear_175_198" x1="179.5" y1="330" x2="179.5" y2="641.381" gradientUnits="userSpaceOnUse">
<stop stop-color="#F7DD43"/>
<stop offset="1" stop-color="#F7DD43" stop-opacity="0"/>
</linearGradient>
<linearGradient id="paint26_linear_175_198" x1="179.5" y1="330" x2="179.5" y2="641.381" gradientUnits="userSpaceOnUse">
<stop stop-color="#F7DD43"/>
<stop offset="1" stop-color="#F7DD43" stop-opacity="0"/>
</linearGradient>
<linearGradient id="paint27_linear_175_198" x1="179.5" y1="330" x2="179.5" y2="641.381" gradientUnits="userSpaceOnUse">
<stop stop-color="#F7DD43"/>
<stop offset="1" stop-color="#F7DD43" stop-opacity="0"/>
</linearGradient>
<linearGradient id="paint28_linear_175_198" x1="179.5" y1="330" x2="179.5" y2="641.381" gradientUnits="userSpaceOnUse">
<stop stop-color="#F7DD43"/>
<stop offset="1" stop-color="#F7DD43" stop-opacity="0"/>
</linearGradient>
<linearGradient id="paint29_linear_175_198" x1="179.5" y1="330" x2="179.5" y2="641.381" gradientUnits="userSpaceOnUse">
<stop stop-color="#F7DD43"/>
<stop offset="1" stop-color="#F7DD43" stop-opacity="0"/>
</linearGradient>
<linearGradient id="paint30_linear_175_198" x1="179.5" y1="330" x2="179.5" y2="641.381" gradientUnits="userSpaceOnUse">
<stop stop-color="#F7DD43"/>
<stop offset="1" stop-color="#F7DD43" stop-opacity="0"/>
</linearGradient>
<linearGradient id="paint31_linear_175_198" x1="179.5" y1="330" x2="179.5" y2="641.381" gradientUnits="userSpaceOnUse">
<stop stop-color="#F7DD43"/>
<stop offset="1" stop-color="#F7DD43" stop-opacity="0"/>
</linearGradient>
<linearGradient id="paint32_linear_175_198" x1="179.5" y1="330" x2="179.5" y2="641.381" gradientUnits="userSpaceOnUse">
<stop stop-color="#F7DD43"/>
<stop offset="1" stop-color="#F7DD43" stop-opacity="0"/>
</linearGradient>
<linearGradient id="paint33_linear_175_198" x1="179.5" y1="330" x2="179.5" y2="641.381" gradientUnits="userSpaceOnUse">
<stop stop-color="#F7DD43"/>
<stop offset="1" stop-color="#F7DD43" stop-opacity="0"/>
</linearGradient>
<linearGradient id="paint34_linear_175_198" x1="179.5" y1="330" x2="179.5" y2="641.381" gradientUnits="userSpaceOnUse">
<stop stop-color="#F7DD43"/>
<stop offset="1" stop-color="#F7DD43" stop-opacity="0"/>
</linearGradient>
<linearGradient id="paint35_linear_175_198" x1="179.5" y1="330" x2="179.5" y2="641.381" gradientUnits="userSpaceOnUse">
<stop stop-color="#F7DD43"/>
<stop offset="1" stop-color="#F7DD43" stop-opacity="0"/>
</linearGradient>
<linearGradient id="paint36_linear_175_198" x1="179.5" y1="330" x2="179.5" y2="641.381" gradientUnits="userSpaceOnUse">
<stop stop-color="#F7DD43"/>
<stop offset="1" stop-color="#F7DD43" stop-opacity="0"/>
</linearGradient>
<linearGradient id="paint37_linear_175_198" x1="179.5" y1="330" x2="179.5" y2="641.381" gradientUnits="userSpaceOnUse">
<stop stop-color="#F7DD43"/>
<stop offset="1" stop-color="#F7DD43" stop-opacity="0"/>
</linearGradient>
<linearGradient id="paint38_linear_175_198" x1="179.5" y1="330" x2="179.5" y2="641.381" gradientUnits="userSpaceOnUse">
<stop stop-color="#F7DD43"/>
<stop offset="1" stop-color="#F7DD43" stop-opacity="0"/>
</linearGradient>
<linearGradient id="paint39_linear_175_198" x1="179.5" y1="330" x2="179.5" y2="641.381" gradientUnits="userSpaceOnUse">
<stop stop-color="#F7DD43"/>
<stop offset="1" stop-color="#F7DD43" stop-opacity="0"/>
</linearGradient>
<linearGradient id="paint40_linear_175_198" x1="179.5" y1="330" x2="179.5" y2="641.381" gradientUnits="userSpaceOnUse">
<stop stop-color="#F7DD43"/>
<stop offset="1" stop-color="#F7DD43" stop-opacity="0"/>
</linearGradient>
<linearGradient id="paint41_linear_175_198" x1="179.5" y1="330" x2="179.5" y2="641.381" gradientUnits="userSpaceOnUse">
<stop stop-color="#F7DD43"/>
<stop offset="1" stop-color="#F7DD43" stop-opacity="0"/>
</linearGradient>
<linearGradient id="paint42_linear_175_198" x1="179.5" y1="330" x2="179.5" y2="641.381" gradientUnits="userSpaceOnUse">
<stop stop-color="#F7DD43"/>
<stop offset="1" stop-color="#F7DD43" stop-opacity="0"/>
</linearGradient>
<linearGradient id="paint43_linear_175_198" x1="179.5" y1="330" x2="179.5" y2="641.381" gradientUnits="userSpaceOnUse">
<stop stop-color="#F7DD43"/>
<stop offset="1" stop-color="#F7DD43" stop-opacity="0"/>
</linearGradient>
<linearGradient id="paint44_linear_175_198" x1="179.5" y1="330" x2="179.5" y2="641.381" gradientUnits="userSpaceOnUse">
<stop stop-color="#F7DD43"/>
<stop offset="1" stop-color="#F7DD43" stop-opacity="0"/>
</linearGradient>
<linearGradient id="paint45_linear_175_198" x1="179.5" y1="330" x2="179.5" y2="641.381" gradientUnits="userSpaceOnUse">
<stop stop-color="#F7DD43"/>
<stop offset="1" stop-color="#F7DD43" stop-opacity="0"/>
</linearGradient>
<linearGradient id="paint46_linear_175_198" x1="179.5" y1="330" x2="179.5" y2="641.381" gradientUnits="userSpaceOnUse">
<stop stop-color="#F7DD43"/>
<stop offset="1" stop-color="#F7DD43" stop-opacity="0"/>
</linearGradient>
</defs>
</svg>
